<?xml version="1.0" encoding="utf-8"?>
<!-- Generator: Adobe Illustrator 21.0.0, SVG Export Plug-In . SVG Version: 6.00 Build 0)  -->
<svg version="1.1" id="Camada_1" xmlns="http://www.w3.org/2000/svg" xmlns:xlink="http://www.w3.org/1999/xlink" x="0px" y="0px"
	 viewBox="0 0 115.1 115" style="enable-background:new 0 0 115.1 115;" xml:space="preserve">
<style type="text/css">
	.st0{fill:#D34539;}
	.st1{fill:#CF2118;}
	.st2{fill:#E69824;}
	.st3{fill:#E69924;}
	.st4{fill:#EDBC2E;}
	.st5{fill:#EEBE30;}
	.st6{fill:#E79E2A;}
	.st7{fill:#D12A19;}
	.st8{fill:#D34538;}
	.st9{fill:#EDBD2E;}
	.st10{fill:#D54117;}
	.st11{fill:#E7A029;}
	.st12{fill:#EEBF2F;}
	.st13{fill:#D34436;}
	.st14{fill:#ECB631;}
	.st15{fill:#E8A126;}
	.st16{fill:#FBF3A0;}
	.st17{fill:#FDF9AF;}
</style>
<title>brand-icon</title>
<path class="st0" d="M4.2,25.2l1.6-1.8C7.5,19.5,52.8,2,58.8,2c7.1,0,47.6,18.4,50.3,21.5l1.2,2.6l0.2,4.7
	c0.7,5.6,0.3,11.1,0.3,16.7c0.1,15.7,0,31.4,0,47c0,1.7,0.3,3.4-0.5,5c-0.9,2.4-2,4.5-4.2,5.9c-1.6,1.2-3.4,1.9-5.4,2.2
	c-28.1,0.2-56.1,0.1-84.2,0.1c-2.7,0.1-5.3-0.6-7.5-2c-3.1-1.8-4.3-4.7-4.7-8c0-21.8,0-43.7,0-65.6C4.3,30.4,3.4,26.8,4.2,25.2z"/>
<path class="st1" d="M64.6,29.8c0-4.8,0.1-9.7-0.1-14.5c0-2,0.4-3,2.6-2.2c15,5.5,27.1,14.2,32.3,30.2c3.6,11,2.1,23-4.1,32.8
	c-6.3,10.2-16,17.2-27.8,20.6c-2.2,0.6-2.9-0.1-2.9-2.2c0-1.3,0-2.5,0-3.7c1-2.8,3.9-3.4,6.1-4.5c4.1-2.1,7.3-5.7,9.1-10
	c1.3-2.2,1.5-4.7,2.8-6.9c6.6-13.2,5-25.3-4-35.1c0.9,1.9,0.3,4.9-0.4,7.9c-0.2,0.9-0.4,1.8-0.7,2.7c-1.8,3.5-2.7,7.6-6.8,9.5
	c-2.1-1.2-1.7-3.1-1.3-4.8c1-4.2-0.1-8.2-1.6-12c-1.4-2.1-3-4.1-3.7-6.5C64,30.6,64.2,30.1,64.6,29.8z"/>
<path class="st1" d="M39.7,87.2c0,0.8,0,1.6,0.1,2.3c0.1,6.8,0,6.6-6.7,6.9c-4.6,0.3-6.2-1.4-5.5-5.8c0.2-1.2-0.1-2.5,0-3.7
	c0.5-4.2,0.1-7.5-5.6-6.6c-1.7,0.3-2.8-1.2-3.6-2.5c-1.4-2.4-2.7-4.8-4.1-7.2c1.9-0.9,3.8-0.4,5.6-0.4c9-0.2,7.7,1.2,7.8-8
	s-0.1-18.7,0.1-28c0.1-6,1.2-11.6,6.3-15.8c7.1-5.8,22.9-3.8,25.4,7c-1.6,0.4-2.9,1-3.1,2.9c-0.6,1.8-0.9,3.7-1.5,5.5
	c-0.1,0.4-0.3,0.8-0.5,1.2c-1.2,2.1-1.6,4.7-3.1,6.7c-0.5,0.6-1.1,0.9-1.8,1c-2.7-0.5-2.3-2.6-2-4.3c0.5-2.6,0.3-5.2-0.5-7.7
	c-0.5-1.3-1.2-2.6-2.9-2.5s-2.3,1.3-2.6,2.7c-0.8,3.6-0.3,7.3-0.5,11c0,1-0.2,1.9-0.4,2.8c-1.7,4.7-4.6,8.8-6.7,13.3
	c-3.8,8.4-2.5,16,2.4,23.4c1.1,1.7,2.6,3.1,3.4,5C39.7,86.7,39.7,86.9,39.7,87.2z"/>
<path class="st2" d="M64.6,30.8l3.6,5.7c1.6,4.5,3,8.9,1.6,13.8c-0.3,1.1-1.5,3.3,1.2,3.9l5.6-9.5c0.7,0.5,1.1,1.2,1.2,2
	c1.9,8.1,0.9,16.3,1.1,24.5c0.1,2-0.3,4.1,1.6,5.6c-1.7,7.2-7.8,9.8-13.4,13c-0.8,0.5-1.7,0.8-2.5,1.2c-0.3-0.1-0.6-0.1-0.9-0.1
	l-0.4-0.6c-0.3-2.5,0.2-5.1-0.1-7.6c-0.1-2.5,0-5,0-7.5C63,62.5,63,49.9,63.1,37.4C63.1,35,62.7,32.6,64.6,30.8z"/>
<path class="st3" d="M56.1,27c0.1-2.6-0.1-5.5,3.8-2.7c0.9,1.3,2.9,1.7,2.9,3.7c-1.3,9.1-0.3,18.2-0.6,27.3
	c-0.1,2.6,0.4,5.3-0.9,7.8c-3,2.6-3.1-1.8-5-2.3c-2.9,3.5-2.8,8.6-6.7,11.4c-0.4,0.1-0.9,0-1.3-0.3c-0.7-1.2,0.2-2.7-0.7-3.9
	c-1-8,0-16.1-0.4-24.2c0.1-2,2.1-1.8,3.1-2.8l0.9-1c1.9-1.8,1.1-2.4,2.2-4.6c-0.1-0.3,1.2-3.1,1.2-3.4C55.4,29.1,55.4,28.8,56.1,27z
	"/>
<path class="st4" d="M59.9,63.5c1.6-1.3,1-3.2,1-4.8c0.1-9.3,0-18.7,0.1-28c0-1.1-1.2-3.6,1.9-2.8l1.7,1.8l0.1,0.9c0,15,0,30-0.1,45
	c-1.9,0.2-1.8-1.5-2.5-2.5c-0.2-0.4-0.4-0.8-0.5-1.2c-0.5-1.2-0.8-2.4-1-3.7C60.4,66.8,58.6,65.4,59.9,63.5z"/>
<path class="st5" d="M46.7,89.8c-2.7-0.2-4.3-2.5-6.5-3.6l0.1-0.3c-1.3-1.9-1.9-4.1-0.5-6c1.7-2.3,4.3-1.9,6.8-1.3
	c2.8,2.1,4.9,4.9,6.1,8.1C50.4,87.1,50.2,91.5,46.7,89.8z"/>
<path class="st6" d="M46.7,89.8c0.8-0.3,2.4,0.3,2.2-0.9c-0.7-4.5,2.3-1.6,3.6-2c2.1-1.2,4.2-0.1,6.3-0.1c2.3,0.4,3.5,2.2,4.8,3.8
	l0.1,0.1c-0.8,0.9-1.9,0.8-2.9,0.9c-2.6,1.6-5.1,1.8-7.6-0.1C51.5,89.6,48.5,91.8,46.7,89.8z"/>
<path class="st7" d="M53.3,91.5l7.5,0.2c0.2,2.3-0.3,3.9-3.2,3.7c-1.8-0.2-3.7,0-5.5,0c-1.5,0-3.4,0.4-3.3-2c0-2.1,1.8-1.6,3.1-1.7
	C52.4,91.6,52.9,91.6,53.3,91.5z"/>
<path class="st8" d="M76.8,42.2c1.4-3.2,0.6-6.6,0.7-10c9.9,7.7,14.1,24.7,5.9,38c-1.6-1.2-1.5-3-1.4-4.7c0.2-6.6-1.2-13.2-3.8-19.3
	C77.6,44.8,77.7,43.3,76.8,42.2z"/>
<path class="st9" d="M78.7,44.8c4.7,7.9,4.9,16.6,4.8,25.3c-1.6,1.9-0.9,4.8-2.9,6.5c-1.3,0.6-3,2.6-2.9-1.1
	c0.2-5.4-0.1-10.9,0.1-16.3c0.2-4.2-0.6-8.3-0.9-12.5C77.5,46.2,76.8,44.2,78.7,44.8z"/>
<path class="st10" d="M71.1,54.1c-1.7,2.3-2.1,1.1-1.8-0.8c1-5.7,0.3-11.4-1-16.9c2.6,3.8,3.4,8.5,2.4,13
	C70.3,51,69.6,52.7,71.1,54.1z"/>
<path class="st11" d="M78.7,44.8l-1.9,2l-0.1-2.1c0.1-0.8,0.1-1.7,0.2-2.5C77.9,42.6,78.7,43.6,78.7,44.8z"/>
<path class="st2" d="M47.7,79.4h-0.9c-6.6,0-6.6,0-6.5,6.5c-9.4-7.3-11.9-19.5-6.1-31.7c1.7-3.6,3.9-7,5.9-10.5
	c1.8,1.5,1.5,3.7,1.5,5.6c0.1,4,0.2,8.1,0,12.1c-0.2,3.7,0.5,6.5,5,6.6c0.8,0.1,1.5,0.5,2,1.1c1.1,0.9-0.3,1.9,0,2.8
	c0.6,2.3,0.5,4.8-0.4,7L47.7,79.4z"/>
<path class="st12" d="M48.7,69.2c-8.4,0-8.4,0-8.4-8.3c0-5.7-0.1-11.4-0.1-17.2l0.2-2.5c0.7-1.7,0.6-3.7,1.1-5.4
	c0.2-1.3,1.1-2.3,2.4-2.5c1.2-0.1,2,0.8,2.5,1.8c1.3,2.5,2.3,5,1.4,7.9c0.9,1.5,1.3,3.3,1.2,5C48.5,55,48.7,62.1,48.7,69.2z"/>
<path class="st13" d="M47.8,42.9c-0.3-2.6-1.1-5.1-2.4-7.3c-0.3-0.6-0.6-1.7-1.5-1.4c-0.6,0.3-1.1,0.9-1.3,1.6
	c-0.7,1.8-0.8,3-2.2,5.4c0.1-4.3-0.7-8.6,0.5-12.8c0.6-2,1.5-3.3,3.8-3.2c1.9,0,3.6,1.4,3.9,3.3c0.7,3,1.4,5.6,1,9
	c0.1,2.6,0.2,0.7,0.1,4.8C49.5,43.4,49,43.1,47.8,42.9z"/>
<path class="st14" d="M61.6,85.8l2.9-2.8c-0.1,2.6,0.6,5.2-0.9,7.6c-2.7,0.9-2.6-2.9-4.8-2.8C58.8,85.7,60.8,86.6,61.6,85.8z"/>
<path class="st15" d="M67.5,51.9V41.3H68v11L67.5,51.9z"/>
<path class="st16" d="M61.6,85.8l-2.8,1.9c-2.1,0.2-4.6,0.4-6.6-0.4c-3.5-0.3-5.2-6.7-5.5-9.7C46.5,74.5,48,72,48,71.9
	c1.6-3.5,4.7-7,6.5-10.4c0.6-1.1,0.6-3.1,2.4-2.9c1.3,0.2,1.5,1.2,1.7,2.8c0.3,1.3,1.1,3.3,1.4,3.9l1.8,2.8c1.7,3.5,3.7,6.4,3.6,9.2
	C65.3,80.5,65.7,82.3,61.6,85.8z"/>
<path class="st17" d="M49.8,73.9c0-0.3,0-0.7,0.1-1c2.5-0.9,1.3,1.2,1.5,2c0.1,0.3,0,1.1-0.5,0.8S50.2,74.5,49.8,73.9z"/>
</svg>
