<svg xmlns="http://www.w3.org/2000/svg" viewBox="0 0 17.54 17.54"><defs><style>.a{fill:#fff;}</style></defs><title>phone-white</title><path class="a" d="M3.26,0a1.49,1.49,0,0,0-.7.27A14,14,0,0,0,1.12,1.48a7.09,7.09,0,0,0-.75.82A1.33,1.33,0,0,0,0,3.16,6.7,6.7,0,0,0,.73,5.93a22.91,22.91,0,0,0,4.7,6.17,22.89,22.89,0,0,0,6.17,4.7,6.67,6.67,0,0,0,2.76.73,1.36,1.36,0,0,0,.87-.37,7.1,7.1,0,0,0,.82-.75A14,14,0,0,0,17.26,15a1.17,1.17,0,0,0-.11-1.65c-.3-.21-3.18-2.12-3.59-2.38a1.33,1.33,0,0,0-1.33.1h0c-.36.19-1.35.76-1.6.9A17,17,0,0,1,7.93,9.6,17.38,17.38,0,0,1,5.59,6.93c.14-.24.71-1.26.9-1.62A1.31,1.31,0,0,0,6.58,4c-.12-.19-.64-1-1.18-1.82S4.34.57,4.21.39A1,1,0,0,0,3.49,0Z"/></svg>