<svg xmlns="http://www.w3.org/2000/svg" viewBox="0 0 27.57 30.63"><defs><style>.a{fill:#fff;}</style></defs><title>Ativo 5</title><path class="a" d="M4.07,0,6.13,7.66v4.59H7.66V7.66L9.86,0H8.23L7,4.79H6.89L5.79,0Zm9,3.06a2.43,2.43,0,0,0-1.72.62,2,2,0,0,0-.62,1.58V9.81a2.47,2.47,0,0,0,.62,1.77,2.22,2.22,0,0,0,1.68.67,2.19,2.19,0,0,0,1.68-.62,2.47,2.47,0,0,0,.62-1.77V5.31a2.21,2.21,0,0,0-.62-1.63A2.18,2.18,0,0,0,13.07,3.06Zm3.78,0v7.51a2.41,2.41,0,0,0,.29,1.29.91.91,0,0,0,.81.38,1.94,1.94,0,0,0,1-.29,3.38,3.38,0,0,0,.91-.81v1.1h1.63V3.06H19.91V9.81a3.07,3.07,0,0,1-.67.48.83.83,0,0,1-.43.19.4.4,0,0,1-.34-.14.88.88,0,0,1-.1-.48V3.06ZM13,4.59a.9.9,0,0,1,.57.14.64.64,0,0,1,.19.48V10a.7.7,0,0,1-.19.53,1,1,0,0,1-1.15,0,.76.76,0,0,1-.19-.53s0,0,0,0V5.36s0,0,0,0v-.1a.67.67,0,0,1,.19-.48A.92.92,0,0,1,13,4.59Zm-10,9.19A3.07,3.07,0,0,0,0,16.85V27.57a3.07,3.07,0,0,0,3.06,3.06H24.51a3.07,3.07,0,0,0,3.06-3.06V16.85a3.07,3.07,0,0,0-3.06-3.06Zm-.14,1.53H7.75a.19.19,0,0,1,.19.19V16.9a.2.2,0,0,1-.19.19H6.32V27.43a.21.21,0,0,1-.19.19H4.59a.21.21,0,0,1-.19-.19V17.09H2.92a.2.2,0,0,1-.19-.19V15.51A.19.19,0,0,1,2.92,15.32Zm10.86,0h1.53a.2.2,0,0,1,.19.19V19a3.12,3.12,0,0,1,.38-.29,2.56,2.56,0,0,1,1-.34,1.5,1.5,0,0,1,1.29.62,4.4,4.4,0,0,1,.24,2.06v5a1.51,1.51,0,0,1-1.53,1.68,2.27,2.27,0,0,1-1-.24,2.08,2.08,0,0,1-.38-.29v.19a.21.21,0,0,1-.19.19H13.78a.21.21,0,0,1-.19-.19V15.51A.2.2,0,0,1,13.78,15.32ZM7.66,18.38H9.19a.21.21,0,0,1,.19.19v6.84c0,.3.1.43.24.43a2.39,2.39,0,0,0,.91-.53V18.57a.21.21,0,0,1,.19-.19h1.53a.2.2,0,0,1,.19.19v8.81a.2.2,0,0,1-.19.19H10.72a.2.2,0,0,1-.19-.19V26.9a4,4,0,0,1-1.77.81,1.1,1.1,0,0,1-1-.48A1.89,1.89,0,0,1,7.47,26V18.57A.21.21,0,0,1,7.66,18.38Zm14.45,0a2.11,2.11,0,0,1,1.72.72,2.86,2.86,0,0,1,.67,2V23c0,.09-.05.19-.14.19H21.44V25c0,1.35,1.53,1.31,1.53.1v-.57c0-.09,0-.19.14-.19l1.2,0a.2.2,0,0,1,.19.19v.62A2.37,2.37,0,0,1,22,27.62,2.45,2.45,0,0,1,19.82,25v-4C19.82,18.82,21.36,18.38,22.11,18.38Zm.14,1.53a.68.68,0,0,0-.53.19,1.51,1.51,0,0,0-.1.67v.67h1.2v-.67a1.13,1.13,0,0,0-.14-.67A.66.66,0,0,0,22.26,19.91Zm-6.08.19a.73.73,0,0,0-.43,0,.88.88,0,0,0-.24.19v5.41a1.16,1.16,0,0,0,.29.19.64.64,0,0,0,.29.1c.2,0,.53,0,.53-.57V20.77a.8.8,0,0,0-.14-.53A.37.37,0,0,0,16.18,20.1Z"/></svg>